<svg version="1.0" xmlns="http://www.w3.org/2000/svg"
 width="192.000000pt" height="192.000000pt" viewBox="0 0 192.000000 192.000000"
 preserveAspectRatio="xMidYMid meet">

<g transform="translate(0.000000,192.000000) scale(0.100000,-0.100000)"
fill="#000000" stroke="none">
<path d="M1175 1445 c-28 -10 -68 -43 -135 -113 -52 -55 -165 -172 -250 -262
l-155 -161 -62 -202 c-35 -111 -63 -205 -63 -209 0 -17 44 -5 227 63 l192 72
249 251 c236 239 250 254 261 303 17 71 2 114 -63 181 -78 82 -131 102 -201
77z m104 -58 c14 -6 44 -36 68 -65 33 -41 43 -61 43 -89 0 -37 -35 -103 -55
-103 -5 0 -56 46 -112 102 -85 85 -100 105 -92 120 22 42 99 60 148 35z m-77
-269 l-32 -33 -75 75 -75 74 32 33 32 33 76 -75 75 -75 -33 -32z m-172 37 c18
-19 32 -37 29 -39 -2 -3 -62 -66 -133 -140 -70 -75 -132 -136 -136 -136 -4 0
-11 11 -14 24 -4 17 -15 26 -36 31 -16 4 -30 10 -30 13 0 8 272 282 280 282 4
0 21 -16 40 -35z m-302 -318 c6 -5 12 -17 12 -27 0 -12 10 -20 33 -24 26 -5
35 -13 42 -38 7 -22 18 -34 35 -38 51 -12 34 -36 -45 -65 l-77 -28 -48 48 -48
47 19 61 c10 33 21 67 23 74 5 13 30 9 54 -10z"/>
</g>
</svg>